<svg xmlns="http://www.w3.org/2000/svg" version="1.1" xmlns:xlink="http://www.w3.org/1999/xlink" xmlns:svgjs="http://svgjs.com/svgjs" width="1700" height="517" preserveAspectRatio="none" viewBox="0 0 1700 517"><g mask="url(&quot;#SvgjsMask1056&quot;)" fill="none"><rect width="1700" height="517" x="0" y="0" fill="rgba(116, 180, 155, 1)"></rect><path d="M 0,438 C 28.4,367.4 85.2,70.8 142,85 C 198.8,99.2 227.2,523 284,509 C 340.8,495 369.2,51.2 426,15 C 482.8,-21.2 511.2,314.2 568,328 C 624.8,341.8 653.2,59.2 710,84 C 766.8,108.8 795.2,448.2 852,452 C 908.8,455.8 937.2,132.4 994,103 C 1050.8,73.6 1079.2,287 1136,305 C 1192.8,323 1221.2,154 1278,193 C 1334.8,232 1363.2,509.8 1420,500 C 1476.8,490.2 1506,150.8 1562,144 C 1618,137.2 1672.4,401.6 1700,466L1700 517L0 517z" fill="rgba(116, 180, 155, 1)"></path><path d="M 0,179 C 56.8,233 170.4,439.4 284,449 C 397.6,458.6 454.4,263.8 568,227 C 681.6,190.2 738.4,295.4 852,265 C 965.6,234.6 1022.4,66.8 1136,75 C 1249.6,83.2 1307.2,283.4 1420,306 C 1532.8,328.6 1644,211.6 1700,188L1700 517L0 517z" fill="rgba(92, 141, 137, 1)"></path></g><defs><mask id="SvgjsMask1056"><rect width="1700" height="517" fill="#ffffff"></rect></mask></defs></svg>