<svg xmlns="http://www.w3.org/2000/svg" version="1.1" xmlns:xlink="http://www.w3.org/1999/xlink" xmlns:svgjs="http://svgjs.com/svgjs" width="1440" height="560" preserveAspectRatio="none" viewBox="0 0 1440 560"><g mask="url(&quot;#SvgjsMask1007&quot;)" fill="none"><rect width="1440" height="560" x="0" y="0" fill="rgba(116, 180, 155, 1)"></rect><path d="M 0,163 C 57.6,138.2 172.8,21.4 288,39 C 403.2,56.6 460.8,231.2 576,251 C 691.2,270.8 748.8,134.8 864,138 C 979.2,141.2 1036.8,273.4 1152,267 C 1267.2,260.6 1382.4,138.2 1440,106L1440 560L0 560z" fill="rgba(125, 177, 158, 1)"></path><path d="M 0,354 C 96,381 288,490.8 480,489 C 672,487.2 768,355.8 960,345 C 1152,334.2 1344,417 1440,435L1440 560L0 560z" fill="rgba(167, 215, 197, 1)"></path></g><defs><mask id="SvgjsMask1007"><rect width="1440" height="560" fill="#ffffff"></rect></mask></defs></svg>