<svg xmlns="http://www.w3.org/2000/svg" version="1.1" xmlns:xlink="http://www.w3.org/1999/xlink" xmlns:svgjs="http://svgjs.com/svgjs" width="1800" height="800" preserveAspectRatio="none" viewBox="0 0 1800 800"><g mask="url(&quot;#SvgjsMask1088&quot;)" fill="none"><rect width="1800" height="800" x="0" y="0" fill="rgba(92, 141, 137, 1)"></rect><path d="M 0,57 C 72,103.4 216,267.4 360,289 C 504,310.6 576,161.8 720,165 C 864,168.2 936,320.6 1080,305 C 1224,289.4 1296,106.4 1440,87 C 1584,67.6 1728,183.8 1800,208L1800 800L0 800z" fill="rgba(125, 177, 158, 1)"></path><path d="M 0,456 C 120,492 360,626.6 600,636 C 840,645.4 960,483 1200,503 C 1440,523 1680,689.4 1800,736L1800 800L0 800z" fill="rgba(167, 215, 197, 1)"></path></g><defs><mask id="SvgjsMask1088"><rect width="1800" height="800" fill="#ffffff"></rect></mask></defs></svg>