<?xml version="1.0" encoding="UTF-8"?>
<svg xmlns="http://www.w3.org/2000/svg" xmlns:xlink="http://www.w3.org/1999/xlink" width="900px" height="900px" viewBox="0 0 900 900" version="1.1">
<g id="surface1">
<path style=" stroke:none;fill-rule:nonzero;fill:rgb(36.078431%,55.294118%,53.72549%);fill-opacity:1;" d="M 550.351562 345.148438 C 601.199219 373.050781 677.699219 384.75 727.199219 435.148438 C 776.25 485.101562 797.851562 574.199219 769.050781 643.050781 C 739.800781 712.351562 660.601562 761.398438 584.550781 765 C 508.949219 768.601562 436.5 726.75 380.25 686.699219 C 323.550781 646.648438 282.601562 608.398438 252.449219 561.601562 C 222.300781 514.351562 202.5 458.550781 193.5 386.550781 C 184.5 314.550781 186.300781 225.898438 230.851562 197.101562 C 275.398438 167.851562 362.699219 198.449219 418.5 235.800781 C 474.75 273.148438 499.5 317.25 550.351562 345.148438 Z M 550.351562 345.148438 "/>
</g>
</svg>
