<?xml version="1.0" encoding="UTF-8"?>
<svg xmlns="http://www.w3.org/2000/svg" xmlns:xlink="http://www.w3.org/1999/xlink" width="600px" height="600px" viewBox="0 0 600 600" version="1.1">
<g id="surface1">
<path style=" stroke:none;fill-rule:nonzero;fill:rgb(36.078431%,55.294118%,53.72549%);fill-opacity:1;" d="M 366.898438 230.101562 C 400.800781 248.699219 451.800781 256.5 484.800781 290.101562 C 517.5 323.398438 531.898438 382.800781 512.699219 428.699219 C 493.199219 474.898438 440.398438 507.601562 389.699219 510 C 339.300781 512.398438 291 484.5 253.5 457.800781 C 215.699219 431.101562 188.398438 405.601562 168.300781 374.398438 C 148.199219 342.898438 135 305.699219 129 257.699219 C 123 209.699219 124.199219 150.601562 153.898438 131.398438 C 183.601562 111.898438 241.800781 132.300781 279 157.199219 C 316.5 182.101562 333 211.5 366.898438 230.101562 Z M 366.898438 230.101562 "/>
</g>
</svg>
