<svg xmlns="http://www.w3.org/2000/svg" version="1.1" xmlns:xlink="http://www.w3.org/1999/xlink" xmlns:svgjs="http://svgjs.com/svgjs" width="1200" height="256" preserveAspectRatio="none" viewBox="0 0 1200 256"><g mask="url(&quot;#SvgjsMask1012&quot;)" fill="none"><rect width="1200" height="256" x="0" y="0" fill="rgba(92, 141, 137, 1)"></rect><path d="M 0,159 C 48,128.4 144,4.6 240,6 C 336,7.4 384,161.8 480,166 C 576,170.2 624,21.8 720,27 C 816,32.2 864,179.4 960,192 C 1056,204.6 1152,110.4 1200,90L1200 256L0 256z" fill="rgba(116, 180, 155, 1)"></path><path d="M 0,78 C 80,107.6 240,232 400,226 C 560,220 640,60.4 800,48 C 960,35.6 1120,140.8 1200,164L1200 256L0 256z" fill="rgba(167, 215, 197, 1)"></path></g><defs><mask id="SvgjsMask1012"><rect width="1200" height="256" fill="#ffffff"></rect></mask></defs></svg>