<?xml version="1.0" encoding="UTF-8"?>
<svg xmlns="http://www.w3.org/2000/svg" xmlns:xlink="http://www.w3.org/1999/xlink" width="650px" height="650px" viewBox="0 0 650 650" version="1.1">
<g id="surface1">
<path style=" stroke:none;fill-rule:nonzero;fill:rgb(36.078431%,55.294118%,53.72549%);fill-opacity:1;" d="M 397.476562 249.273438 C 434.199219 269.425781 489.449219 277.875 525.199219 314.273438 C 560.625 350.351562 576.226562 414.699219 555.425781 464.425781 C 534.300781 514.476562 477.101562 549.898438 422.175781 552.5 C 367.574219 555.101562 315.25 524.875 274.625 495.949219 C 233.675781 467.023438 204.101562 439.398438 182.324219 405.601562 C 160.550781 371.476562 146.25 331.175781 139.75 279.175781 C 133.25 227.175781 134.550781 163.148438 166.726562 142.351562 C 198.898438 121.226562 261.949219 143.324219 302.25 170.300781 C 342.875 197.273438 360.75 229.125 397.476562 249.273438 Z M 397.476562 249.273438 "/>
</g>
</svg>
